<svg width="768" height="768" viewBox="0 0 768 768" fill="none" xmlns="http://www.w3.org/2000/svg">
<rect width="768" height="768" rx="384" fill="#223344"/>
<path fill-rule="evenodd" clip-rule="evenodd" d="M137.336 296.492C134.846 296.472 132.605 297.999 131.706 300.321L68.9999 462.297C67.4982 466.176 70.3035 470.37 74.4617 470.476C78.7883 470.587 82.9566 470.702 86.9684 470.815C87.6507 470.834 88.3274 470.853 88.9987 470.872C102.928 471.263 114.524 471.589 124.847 471.579C146.752 471.558 158.177 469.921 166.594 466.534C174.729 463.261 184.04 456.697 195.693 440.388C207.427 423.963 219.977 399.932 236.227 364.298C246.184 342.464 246.5 328.983 243.629 320.917C241.14 313.924 235.745 309.423 226.21 305.84C215.493 301.812 199.907 299.189 179.122 297.805C166.055 296.935 152.064 296.612 137.336 296.492ZM70.7432 304.587C72.2654 300.656 69.3739 296.421 65.1576 296.421C57.4891 296.421 45.0043 296.421 28.6049 296.421C2.03651e-06 296.421 0 296.421 0 276.211C0 256 2.03651e-06 256 28.6049 256C57.2097 256 112.119 256 112.12 256C112.12 256 112.12 256 112.12 256C135.671 256 161.017 256 184.489 257.562C207.96 259.125 232.437 262.395 253.078 270.153C274.902 278.356 292.161 291.533 299.111 311.058C302.55 320.717 303.241 331.315 301.463 342.852C300.873 346.676 303.715 350.286 307.584 350.286H507.947C542.497 350.286 555.669 382.148 526.552 395.288L386.794 458.358C380.904 461.016 382.8 469.827 389.262 469.827H493.972C495.866 469.827 497.649 468.932 498.782 467.413L619.124 306.008C622.075 302.05 619.251 296.421 614.314 296.421H476.561C475.255 296.421 473.984 296.848 472.942 297.636L421.159 336.803C407.496 347.137 384.305 347.137 370.642 336.803L333.009 307.133C328.538 303.608 331.03 296.421 336.724 296.421H392.559C393.827 296.421 395.062 296.02 396.087 295.275L439.454 263.751C445.991 258.807 454.103 256 464.713 256L739.395 256C768 256 768 256 768 276.211C768 296.421 768 296.421 739.395 296.421L693.945 296.421C692.051 296.421 690.267 297.316 689.135 298.835L541.229 497.209C535.25 505.228 523.477 510.248 510.649 510.248H283.855C249.305 510.248 236.132 478.386 265.249 465.246L405.008 402.176C410.897 399.518 409.001 390.707 402.54 390.707H288.013C285.686 390.707 283.57 392.056 282.574 394.158C269.723 421.29 258.324 442.422 246.765 458.602C232.752 478.216 216.98 492.777 194.904 501.659C173.11 510.428 149.197 511.977 124.925 512L35.7562 511.275C13.9034 511.154 -3.1408 495.436 3.07363 479.384L70.7432 304.587Z" fill="#E4F1F1"/>
</svg>
