<svg
    height="256"
    width="768"
    viewBox="0 0 768 256"
    fill="none"
    xmlns="http://www.w3.org/2000/svg"
>
    <g clip-path="url(#clip0)">
    <path
        fill-rule="evenodd"
        clip-rule="evenodd"
        d="M128.986 40.4953C126.447 40.4725 124.174 42.0577 123.308 44.4442L64.5769 206.426C63.1789 210.282 65.975 214.373 70.0746 214.485C74.0069 214.593 77.799 214.705 81.4526 214.815C82.0916 214.834 82.7254 214.853 83.3541 214.872C96.4003 215.263 107.26 215.589 116.929 215.579C137.444 215.558 148.145 213.921 156.028 210.534C163.647 207.261 172.368 200.697 183.281 184.388C194.271 167.963 206.025 143.932 221.245 108.298C230.57 86.464 230.866 72.9826 228.177 64.9173C225.846 57.9244 220.793 53.4231 211.863 49.8396C201.826 45.8116 187.228 43.1892 167.761 41.8054C155.629 40.943 142.647 40.6178 128.986 40.4953ZM66.3003 48.4665C67.7188 44.5543 64.8225 40.4213 60.6611 40.4213C53.451 40.4213 41.8932 40.4213 26.7907 40.4213C9.75853e-06 40.4213 7.6294e-06 40.4212 7.62939e-06 20.2106C7.62939e-06 5.13982e-05 9.75853e-06 6.2797e-06 26.7907 6.62554e-06C53.5813 6.97139e-06 105.008 6.62555e-06 105.009 6.62554e-06C105.009 6.62554e-06 105.009 6.62548e-06 105.009 6.62536e-06C127.066 -0.000163631 150.804 -0.000351498 172.788 1.56236C194.771 3.125 217.695 6.3955 237.027 14.1532C257.466 22.3555 273.631 35.5329 280.14 55.0579C283.369 64.7428 284.011 75.3707 282.33 86.9428C281.778 90.7372 284.613 94.2861 288.447 94.2861H475.731C508.09 94.2861 520.427 126.148 493.156 139.288L362.13 202.422C356.383 205.191 358.355 213.827 364.734 213.827H462.334C464.294 213.827 466.131 212.869 467.253 211.262L579.963 49.8564C582.74 45.8792 579.895 40.4213 575.044 40.4213H446.57C445.198 40.4213 443.868 40.8914 442.801 41.7534L394.448 80.8025C381.652 91.1366 359.931 91.1367 347.135 80.8025L311.744 51.0115C307.462 47.4071 310.011 40.4213 315.608 40.4213H367.433C368.765 40.4213 370.06 39.9779 371.112 39.1612L411.582 7.75066C417.704 2.80666 425.302 9.83793e-06 435.239 9.83793e-06H741.209C768 9.83793e-06 768 2.89115e-05 768 20.2106C768 40.4212 768 40.4213 741.209 40.4213H650.241C648.281 40.4213 646.444 41.3789 645.322 42.9861L506.902 241.209C501.303 249.228 490.276 254.248 478.261 254.248H265.852C233.494 254.248 221.156 222.386 248.426 209.246L379.453 146.112C385.2 143.343 383.227 134.707 376.848 134.707H270.092C267.713 134.707 265.557 136.118 264.592 138.293C252.58 165.36 241.922 186.449 231.114 202.602C217.99 222.216 203.219 236.777 182.543 245.659C162.131 254.428 139.734 255.977 117.002 256L33.4884 255.275C13.0217 255.154 -2.94159 239.436 2.8787 223.384L66.3003 48.4665Z"
        fill="black"
    />
    </g>
    <defs>
    <clipPath id="clip0">
        <rect width="768" height="256" fill="white" />
    </clipPath>
    </defs>
</svg>